# xmcd
#
# Track frame offsets: 
#        150
#        15300
#        32070
#
# Disc length: 734 seconds
#
# Revision: 2
# Processed by: cddbd v1.5.2PL0 Copyright (c) Steve Scherf et al.
# Submitted via: ExactAudioCopy v0.99pb4
#
DISCID=1502dc03
DTITLE=Franz Ferdinand - No You Girls
DYEAR=2009
DGENRE=Rock
TTITLE0=No You Girls (Radio Mix)
TTITLE1=No You Girls (Album Version)
TTITLE2=No You Girls (Vince Clark Remix)
EXTD=
EXTT0=
EXTT1=
EXTT2=
PLAYORDER=
